<svg width="22" height="22" viewBox="0 0 22 22" fill="none" xmlns="http://www.w3.org/2000/svg">
<path d="M20.7778 0H1.22222C0.898069 0 0.587192 0.128769 0.357981 0.357981C0.128769 0.587192 0 0.898069 0 1.22222V20.7778C0 21.1019 0.128769 21.4128 0.357981 21.642C0.587192 21.8712 0.898069 22 1.22222 22H11.7517V13.4933H8.89411V10.1628H11.7517V7.71833C11.7517 4.87667 13.4872 3.32811 16.0294 3.32811C16.8838 3.32567 17.7393 3.36967 18.59 3.45889V6.41667H16.8361C15.4574 6.41667 15.1886 7.07422 15.1886 8.03611V10.1567H18.4849L18.0571 13.4872H15.1873V22H20.7778C21.1019 22 21.4128 21.8712 21.642 21.642C21.8712 21.4128 22 21.1019 22 20.7778V1.22222C22 0.898069 21.8712 0.587192 21.642 0.357981C21.4128 0.128769 21.1019 0 20.7778 0V0Z" fill="#B8B8B8"/>
</svg>
