<svg width="25" height="24" viewBox="0 0 25 24" fill="none" xmlns="http://www.w3.org/2000/svg">
<path d="M20.55 4H4.55005C3.45005 4 2.56005 4.9 2.56005 6L2.55005 18C2.55005 19.1 3.45005 20 4.55005 20H20.55C21.65 20 22.55 19.1 22.55 18V6C22.55 4.9 21.65 4 20.55 4ZM20.15 8.25L13.08 12.67C12.76 12.87 12.34 12.87 12.02 12.67L4.95005 8.25C4.84978 8.19371 4.76197 8.11766 4.69194 8.02645C4.62191 7.93525 4.57111 7.83078 4.54262 7.71937C4.51414 7.60796 4.50855 7.49194 4.52621 7.37831C4.54386 7.26468 4.58439 7.15581 4.64533 7.0583C4.70628 6.96079 4.78637 6.87666 4.88077 6.811C4.97518 6.74533 5.08192 6.69951 5.19454 6.6763C5.30717 6.65309 5.42333 6.65297 5.536 6.67595C5.64868 6.69893 5.75551 6.74453 5.85005 6.81L12.55 11L19.25 6.81C19.3446 6.74453 19.4514 6.69893 19.5641 6.67595C19.6768 6.65297 19.7929 6.65309 19.9056 6.6763C20.0182 6.69951 20.1249 6.74533 20.2193 6.811C20.3137 6.87666 20.3938 6.96079 20.4548 7.0583C20.5157 7.15581 20.5562 7.26468 20.5739 7.37831C20.5915 7.49194 20.586 7.60796 20.5575 7.71937C20.529 7.83078 20.4782 7.93525 20.4082 8.02645C20.3381 8.11766 20.2503 8.19371 20.15 8.25V8.25Z" fill="#B8B8B8"/>
</svg>
