<svg width="24" height="20" viewBox="0 0 24 20" fill="none" xmlns="http://www.w3.org/2000/svg">
<path d="M24 2.36906C23.3317 3.38888 22.5117 4.25824 21.5402 4.97712C21.5498 5.16992 21.5546 5.38783 21.5546 5.63085C21.5546 6.98116 21.3627 8.3331 20.9789 9.68667C20.5951 11.0403 20.0088 12.3359 19.2201 13.5735C18.4314 14.8112 17.4918 15.9076 16.4015 16.8629C15.3112 17.8181 14.0006 18.5798 12.4697 19.1479C10.9389 19.716 9.29815 20 7.54763 20C4.81566 20 2.29978 19.2434 0 17.7301C0.408184 17.7767 0.799667 17.8 1.17445 17.8C3.45679 17.8 5.49529 17.0789 7.28994 15.6365C6.22578 15.6165 5.27275 15.2804 4.43084 14.6283C3.58894 13.9762 3.00956 13.143 2.6927 12.1286C3.00589 12.1898 3.315 12.2204 3.62003 12.2204C4.05909 12.2204 4.49112 12.1616 4.91613 12.0441C3.78047 11.8108 2.83835 11.2305 2.08976 10.3033C1.3412 9.37614 0.966919 8.30599 0.966919 7.09287V7.03035C1.66399 7.4263 2.40752 7.63691 3.19752 7.66219C2.52477 7.20209 1.99138 6.60209 1.59735 5.86221C1.20329 5.12233 1.00626 4.32166 1.00626 3.46018C1.00626 2.5516 1.22819 1.70555 1.67205 0.922019C2.90706 2.47678 4.40352 3.71939 6.16144 4.64986C7.91939 5.58033 9.80534 6.09709 11.8193 6.20013C11.7334 5.83289 11.6904 5.44966 11.6902 5.05044C11.6902 3.65649 12.171 2.46626 13.1327 1.47976C14.0945 0.493253 15.2547 0 16.6135 0C18.0361 0 19.2344 0.531406 20.2083 1.59422C21.3211 1.3681 22.363 0.959106 23.3341 0.36724C22.96 1.57511 22.2391 2.50689 21.1714 3.1626C22.1527 3.04297 23.0955 2.77846 24 2.36906H24Z" fill="#B8B8B8"/>
</svg>
